<svg xmlns="http://www.w3.org/2000/svg" viewBox="0 0 360 80" width="360" height="80" role="img" aria-label="Company Dossier logo lockup">
  <g transform="translate(8 8)">
    <g fill="none" stroke="#15130f" stroke-width="3.4" stroke-linecap="round" stroke-linejoin="round">
      <path d="M10 25 a3 3 0 0 1 3 -3 h10.5 a3 3 0 0 1 2.1 .9 l2.4 2.4 a3 3 0 0 0 2.1 .9 H49 a3 3 0 0 1 3 3 v14 a3 3 0 0 1 -3 3 H13 a3 3 0 0 1 -3 -3 z"/>
      <path d="M10 31 H52"/>
      <circle cx="41" cy="42" r="11" fill="#f5f1e6"/>
      <path d="M36.5 42 a4.5 4.5 0 0 1 4.5 -4.5"/>
      <path d="M49 50 L57.5 58.5" stroke-width="4.2"/>
    </g>
  </g>
  <text x="86" y="40" font-family="Georgia, 'Times New Roman', serif" font-weight="700" font-size="27" fill="#15130f">Company</text>
  <text x="86" y="68" font-family="Georgia, 'Times New Roman', serif" font-weight="700" font-size="27" fill="#15130f">Dossier</text>
</svg>
